<svg xmlns="http://www.w3.org/2000/svg" width="8in" height="10in" viewBox="0 0 2400 3000"><title>Pumpkin - fine adult transfer outline</title><desc>8 x 10 inches. True vector paths, no background. Line weight 2 pt. #A6A6A6.</desc><g fill="none" stroke="#A6A6A6" stroke-width="8.333333333333334" stroke-linecap="round" stroke-linejoin="round"><path d="M 1366 506 L 1349.3 515.3 L 1324.4 533.3 L 1288.3 566.3 L 1257.3 603.3 L 1230.8 645 L 1211.4 684.3 L 1197.3 720.3 L 1185.3 760 L 1157.9 870.9 L 1144.7 906 L 1134 927 L 1129 948"/><path d="M 1434 571 L 1387.8 602.8 L 1363 626 L 1346.3 645.4 L 1319.3 687 L 1306.4 714.3 L 1295.1 746.1 L 1286 796 L 1286 845 L 1294.3 892 L 1311.9 943 L 1314 954 L 1313 961"/><path d="M 1376 825 L 1411 817.1 L 1456 812 L 1503 814.1 L 1530 819.1 L 1564.9 829 L 1612.6 849.4 L 1644.2 869.8 L 1650 885"/><path d="M 1376 825 L 1382.4 848 L 1424.2 896.1 L 1427.9 905.1 L 1430 926"/><path d="M 1376 825 L 1369.3 820.7 L 1364.3 807 L 1361 783 L 1361 767 L 1364.1 741.1 L 1379.3 699 L 1399.4 667.9 L 1420.8 647.8 L 1439.3 636.4 L 1469 625.2 L 1483.2 617.3 L 1489.8 610.6 L 1494.7 602 L 1498 585 L 1496.9 564 L 1489.7 536.3 L 1477.7 509.4 L 1464.9 490 L 1444 468.1 L 1427.7 456.3 L 1407 446.7 L 1390 443 L 1372 444.1 L 1355 449.4 L 1328.1 460.8 L 1300 476.3 L 1245 515.1 L 1196.3 561.3 L 1160.3 606 L 1131.3 651 L 1111.3 687.3 L 1072.7 767.7 L 1052.7 803.7 L 1040.2 821.2 L 1026 827"/><path d="M 1026 827 L 1019.9 847 L 980.1 888 L 973.4 898 L 970.1 908 L 968 926"/><path d="M 1026 827 L 1022 824.1 L 1001.9 819.1 L 948 812 L 909 813 L 869.1 819.1 L 828 831.4 L 787.3 849.3 L 754.8 869.8 L 749 885"/><path d="M 749 885 L 754 891.5 L 777.7 898.3 L 811.6 914.5 L 818 928"/><path d="M 749 885 L 684 881 L 637 884.1 L 590 894.3 L 537 913.3 L 486 940.3 L 440.8 970.8 L 393.8 1009.8 L 350.8 1052.8 L 313.8 1096.8 L 284.8 1137.1 L 247.3 1198.3 L 220.8 1252 L 197.3 1312.3 L 177.4 1378 L 162.1 1452 L 153 1516 L 148 1584 L 147 1655 L 151.1 1727 L 160.1 1794 L 177.3 1878 L 200.1 1955.9 L 229.3 2035 L 258.3 2098.7 L 290.3 2159 L 335.3 2231.7 L 384.2 2295.6 L 427.8 2341.3 L 453 2362.9 L 480.3 2382.8 L 515 2402.7 L 553 2417.6 L 573 2422.9 L 594 2426 L 614 2425"/><path d="M 1650 885 L 1656 885.9 L 1714 881 L 1749 882.1 L 1795 890.3 L 1847 907.3 L 1896 931.4 L 1940.9 960.7 L 1974.2 986.8 L 2006 1016.3 L 2035.8 1047.4 L 2085.8 1110.4 L 2119.7 1163 L 2152.8 1225 L 2181.7 1291 L 2205.7 1361 L 2225.9 1441 L 2237.9 1508 L 2245 1574 L 2248 1638 L 2247 1695 L 2239.9 1775 L 2229.9 1836.9 L 2207.7 1924 L 2182 1999.9 L 2142.7 2089.7 L 2111.8 2149 L 2073.3 2211.9 L 2030.8 2270.6 L 2000 2306 L 1970 2336 L 1943.6 2358.8 L 1911.7 2381.7 L 1892.7 2392.7 L 1851.7 2410.7 L 1815 2420.9 L 1798 2423 L 1783 2423 L 1779 2421"/><path d="M 1650 885 L 1644.6 891.6 L 1612 902.3 L 1587.1 914.8 L 1580 929"/><path d="M 968 926 L 973.3 929.6 L 994 934.3 L 1026 946.3 L 1056.7 963.3 L 1063 973"/><path d="M 968 926 L 928 923 L 897 923 L 842 929 L 829 929.8 L 818 928"/><path d="M 1430 926 L 1500 923 L 1568 930 L 1580 929"/><path d="M 1430 926 L 1426 929.5 L 1400.1 936.1 L 1380 943.8 L 1351.3 958.3 L 1336 970"/><path d="M 818 928 L 811.9 935.9 L 774 947.4 L 720 971.3 L 693.3 986.3 L 661.4 1008.3 L 625 1038.1 L 598 1064 L 551.3 1119.3 L 519.8 1166.1 L 499.8 1201.1 L 479.4 1242 L 459.3 1290.3 L 439.4 1350 L 429.3 1388 L 418.1 1437.1 L 409.1 1491 L 397 1615 L 397 1757 L 409.1 1887 L 425.1 1983 L 442.3 2057 L 457.3 2110 L 483.4 2186 L 501.4 2230.7 L 521.8 2273.9 L 539.3 2306 L 568.3 2352.7 L 607.7 2404.4 L 614 2425"/><path d="M 1580 929 L 1585.1 935.5 L 1623 947.3 L 1672 968.4 L 1698.7 983.3 L 1733 1007.1 L 1753 1023.1 L 1789.3 1056.8 L 1816.8 1087.4 L 1849.7 1131.3 L 1877.3 1175.1 L 1900.6 1219 L 1925.6 1276 L 1942.6 1322 L 1968.9 1416.1 L 1988.9 1528 L 1999 1631 L 2001 1692 L 1999 1779 L 1995 1833 L 1986.9 1900 L 1975.9 1968 L 1962.7 2032 L 1944.6 2100 L 1931.6 2140 L 1911.7 2193.7 L 1891.7 2239.7 L 1872.2 2278 L 1849.3 2316.9 L 1813.2 2368.2 L 1784.8 2401.1 L 1779 2421"/><path d="M 1129 948 L 1177 943 L 1225 943 L 1251 946.1 L 1313 961"/><path d="M 1129 948 L 1121 953.2 L 1085 968.6 L 1063 973"/><path d="M 1313 961 L 1319 966.5 L 1336 970"/><path d="M 1336 970 L 1342.1 983.9 L 1365.9 1006 L 1395.7 1046 L 1413.6 1079.3 L 1435.9 1135.1 L 1450.7 1187 L 1461.9 1240 L 1474.9 1331 L 1484.1 1446 L 1491 1454"/><path d="M 1063 973 L 1058.2 985.2 L 1030.2 1012.4 L 1003.3 1050 L 985.4 1083.3 L 961.3 1143.3 L 947.3 1191 L 934.1 1251.1 L 920.1 1350 L 911.9 1444 L 910.2 1448.2 L 905 1453"/><path d="M 905 1453 L 911.3 1488 L 945.6 1565 L 948.3 1582 L 947.2 1585.2 L 943 1586.9 L 899 1587"/><path d="M 905 1453 L 890.5 1445.9 L 829.6 1330 L 780.7 1243.3 L 771.5 1228.4 L 761.3 1224.4 L 750.8 1231.1 L 660.8 1380.1 L 569.8 1542 L 563.5 1554 L 560 1569 L 562.1 1574.9 L 581 1577 L 899 1587"/><path d="M 1491 1454 L 1505.7 1446.6 L 1543.8 1373 L 1597.3 1277 L 1625.8 1230.7 L 1637 1225.4 L 1644.9 1228.8 L 1649.7 1235 L 1737.2 1384 L 1829.6 1551 L 1834.8 1571 L 1832 1575 L 1819 1577 L 1499 1588"/><path d="M 1491 1454 L 1485.6 1487 L 1451.3 1564 L 1448 1581 L 1449.5 1585.5 L 1453 1586.9 L 1499 1588"/><path d="M 899 1587 L 894 1742 L 897 1890"/><path d="M 1499 1588 L 1502 1700 L 1500 1889"/><path d="M 840 1883 L 897 1890"/><path d="M 840 1883 L 838.1 2024 L 841.8 2036.2 L 859 2040.9 L 944 2050 L 993 2052 L 1002.9 2049.6 L 1005.9 2042.9 L 1008 2021 L 1014 1915"/><path d="M 840 1883 L 836 1879.7 L 774 1862.6 L 705.3 1838.6 L 625.1 1803.2 L 568 1771.4 L 549 1767.1 L 546.4 1769 L 548.1 1790.9 L 556.3 1824 L 572.3 1873.7 L 587.3 1909.7 L 621.3 1974 L 648.3 2015 L 669.4 2043.1 L 706.8 2086.2 L 725.3 2104.8 L 774.4 2145.8 L 798.1 2162.3 L 834.4 2183.6 L 875.4 2203.6 L 909.7 2217.4 L 915 2224"/><path d="M 1557 1883 L 1560 2023 L 1556.9 2035 L 1544 2039.9 L 1494 2045.9 L 1428 2051 L 1404 2052 L 1395.1 2049.5 L 1391.4 2041 L 1390.1 2031 L 1382 1914"/><path d="M 1557 1883 L 1500 1889"/><path d="M 1557 1883 L 1562 1878.4 L 1632.9 1858.9 L 1698 1835.7 L 1768.7 1804.7 L 1828.3 1772.3 L 1849 1767.1 L 1851.4 1768.1 L 1848.9 1792.9 L 1837.9 1833.9 L 1824.7 1871 L 1809.7 1905.7 L 1773.7 1973.7 L 1751.8 2007.7 L 1721.6 2048.1 L 1672.2 2101.3 L 1647.6 2122.8 L 1618.7 2144.7 L 1566.7 2176.7 L 1526.7 2196.7 L 1486 2213.5 L 1480 2220"/><path d="M 1500 1889 L 1497.6 1891.6 L 1489 1893.9 L 1391.1 1910.1 L 1385 1911.4 L 1382 1914"/><path d="M 897 1890 L 902 1893.9 L 1009.9 1912.1 L 1014 1915"/><path d="M 1382 1914 L 1357 1914 L 1307 1920 L 1222 1925 L 1130 1924 L 1034 1915 L 1014 1915"/><path d="M 1480 2220 L 1478.9 2243.9 L 1473.9 2272 L 1460.9 2326.9 L 1447.6 2371 L 1423.6 2429 L 1392.8 2479 L 1389 2493"/><path d="M 1480 2220 L 1461 2223.3 L 1403.9 2240.9 L 1341 2255.9 L 1285 2264.9 L 1211 2271 L 1167 2271 L 1082.1 2262.9 L 1016 2249.9 L 965 2236.6 L 934 2226.3 L 915 2224"/><path d="M 915 2224 L 916.1 2246 L 923.1 2285 L 941.3 2359 L 966.4 2424.7 L 980.8 2451.9 L 997.5 2476 L 1002 2491"/><path d="M 1779 2421 L 1759.4 2427.4 L 1716.7 2460.7 L 1676 2484.2 L 1632 2502.7 L 1567.9 2517.9 L 1517 2522 L 1479 2519.9 L 1428 2509.6 L 1403.1 2501 L 1389 2493"/><path d="M 614 2425 L 631 2430.5 L 665.4 2460.8 L 691 2478.7 L 712 2490.2 L 741 2503.3 L 791.1 2517.9 L 841 2524 L 880 2524 L 910 2520.9 L 954 2511.7 L 992 2497.2 L 1002 2491"/><path d="M 1002 2491 L 1015 2494.8 L 1043.1 2514.3 L 1076 2529.6 L 1123.1 2542.9 L 1174 2549 L 1221 2549 L 1258 2544.9 L 1290 2538.7 L 1329 2525.2 L 1353.7 2512.7 L 1376 2496.8 L 1389 2493"/><path d="M 1196 1530 L 1206 1533.8 L 1209 1537 L 1262.3 1628.1 L 1333.5 1758 L 1336.5 1773 L 1335.7 1776.7 L 1333 1778.9 L 1314 1780 L 1212 1783 L 1091 1781 L 1056.1 1778.2 L 1054 1772 L 1057 1758 L 1088.8 1699.1 L 1173.8 1555.1 L 1186.8 1534.8 L 1196 1530"/></g></svg>