<svg xmlns="http://www.w3.org/2000/svg" width="8in" height="10in" viewBox="0 0 2400 3000"><title>Gnome Halloween - fine adult transfer outline</title><desc>8 x 10 inches. True vector paths, no background. Line weight 2 pt. #A6A6A6.</desc><g fill="none" stroke="#A6A6A6" stroke-width="8.333333333333334" stroke-linecap="round" stroke-linejoin="round"><path d="M 1321 254 L 1325.1 301 L 1339.1 374.9 L 1362 452 L 1372 460"/><path d="M 1412 290 L 1389.1 414.1 L 1387 437 L 1388 444"/><path d="M 1388 444 L 1419 443 L 1439.9 447.8 L 1458 460 L 1477.7 485 L 1485.2 499 L 1496.7 529 L 1513.1 607.9 L 1527 654.9 L 1547.3 695.7 L 1559.1 712 L 1576 730.9 L 1592 744 L 1611.1 755 L 1628 760.9 L 1650 764 L 1670 762.9 L 1690 758 L 1704.6 749.8 L 1718.3 738.2 L 1727.8 725 L 1737.7 701 L 1740 673 L 1737.5 658.1 L 1732 654.5 L 1728.3 654.3 L 1719.8 658.8 L 1705.7 672.8 L 1696.9 676.9 L 1686 679 L 1670 675.7 L 1658.4 669.8 L 1641.2 652.7 L 1628.4 633 L 1617.7 607 L 1603.1 546 L 1585.9 390 L 1574.9 324 L 1560.7 273 L 1551.7 250.3 L 1540.7 229.3 L 1521 205.1 L 1456.4 163.8 L 1402 110 L 1372 85.4 L 1358.9 78 L 1343 73.1 L 1322 72 L 1308.1 74.1 L 1294.3 79.3 L 1278.4 90.2 L 1243.8 124.8 L 1157.2 235.2 L 1109.2 286.4 L 1094.3 306 L 1083.3 324.3 L 1029.7 462 L 956.3 637 L 939.1 688.1 L 919.1 767 L 905.1 836.1 L 888.1 954 L 886.5 974 L 889 978"/><path d="M 1388 444 L 1382 453.3 L 1372 460"/><path d="M 1372 460 L 1376.1 494 L 1386.9 532 L 1392 564 L 1392 591 L 1387 632 L 1387.1 655 L 1413.9 747.1 L 1427.9 805 L 1438.9 862.1 L 1458.9 986 L 1461 1004 L 1460 1013"/><path d="M 1128 569 L 1156.3 613.6 L 1172.8 634.2 L 1205.8 668.2 L 1231.3 687.8 L 1259.1 705.3 L 1307 726"/><path d="M 1321 885 L 1338.2 907.6 L 1370.8 944.2 L 1406.8 980.3 L 1440 1007.6 L 1460 1013"/><path d="M 955 929 L 906 971.6 L 889 978"/><path d="M 889 978 L 877.2 999.3 L 838.3 1053.3 L 822.3 1087 L 807.1 1141 L 798.1 1189 L 797 1211"/><path d="M 1460 1013 L 1464.2 1020.7 L 1481.9 1040 L 1493.7 1057 L 1507.7 1087 L 1518.9 1128 L 1528.9 1190 L 1530 1208"/><path d="M 1028 1147 L 1029.8 1150 L 1024 1258 L 1024 1288"/><path d="M 1028 1147 L 991 1152.1 L 953 1161.3 L 883 1182 L 816 1207.7 L 797 1211"/><path d="M 1028 1147 L 1031.9 1138.9 L 1038.8 1103 L 1045.8 1092.8 L 1054.3 1087.3 L 1078 1080.1 L 1115 1075.1 L 1185 1074 L 1213 1075 L 1244 1079.1 L 1261 1083.3 L 1274.6 1090.3 L 1280.7 1097 L 1284.9 1106.1 L 1288.9 1121.1 L 1291.1 1144 L 1294 1151"/><path d="M 1294 1151 L 1324 1154.1 L 1369.9 1163.1 L 1451.9 1185.1 L 1508 1204.7 L 1530 1208"/><path d="M 1294 1151 L 1293 1179 L 1296 1229 L 1295 1296"/><path d="M 1530 1208 L 1550.7 1238 L 1562.7 1263 L 1601.6 1368 L 1606 1390"/><path d="M 797 1211 L 776.3 1239.3 L 764.3 1266 L 736.1 1350.1 L 732 1374"/><path d="M 1024 1288 L 1025.9 1290.1 L 1028.4 1304 L 1034.4 1313.8 L 1039.1 1316.9 L 1060 1320 L 1274 1319.9 L 1283.9 1317.2 L 1288.3 1313.2 L 1295 1296"/><path d="M 1024 1288 L 1007 1289.1 L 966 1297.1 L 910 1311.3 L 831 1338.3 L 753.7 1370.7 L 732 1374"/><path d="M 1295 1296 L 1344 1303.1 L 1415.9 1321.1 L 1495 1348.3 L 1583 1385.7 L 1606 1390"/><path d="M 732 1374 L 722.6 1383.7 L 530.3 1472.3 L 443.1 1517.8 L 419 1533 L 398 1550 L 385.3 1564 L 376.4 1580 L 374 1594 L 375.1 1605 L 376.4 1612 L 384.3 1629 L 395.8 1644.2 L 415.8 1664.3 L 444.4 1685.8 L 497 1714.8 L 528 1727 L 582 1741.9 L 599 1745 L 622 1746"/><path d="M 1606 1390 L 1618.3 1401.7 L 1672.3 1428.7 L 1761.3 1470.7 L 1912 1537.8 L 1918.5 1542.1 L 1925 1557"/><path d="M 1265 1442 L 1270 1438.5 L 1284 1439.1 L 1364.9 1457.1 L 1570.9 1520.1 L 1583 1528"/><path d="M 1265 1442 L 1272.1 1456.9 L 1298 1479 L 1311.2 1497 L 1318 1511.1 L 1321.9 1526 L 1324 1556"/><path d="M 1265 1442 L 1229 1434.1 L 1197 1430.1 L 1145 1430 L 1115.1 1433.1 L 1090 1438.1 L 1057 1448"/><path d="M 1057 1448 L 1049.9 1462.9 L 1029 1481 L 1015.3 1499 L 1004.3 1526 L 1001 1552"/><path d="M 1057 1448 L 1052 1444.2 L 1035 1446.1 L 1015.1 1451.1 L 861.9 1497.9 L 799 1513.9 L 761.1 1521.1 L 753 1526"/><path d="M 753 1526 L 748.6 1542 L 743.7 1550 L 695 1611.1 L 691.5 1626 L 694 1627.9 L 709 1628.5 L 709.9 1633 L 706.2 1646.9 L 675.8 1696 L 671 1717"/><path d="M 753 1526 L 749 1524 L 684 1530 L 578 1532 L 552.1 1534.1 L 505.1 1542.1 L 468 1553.3 L 447 1562.3 L 424.4 1575.3 L 410.3 1586.3 L 403 1595"/><path d="M 1583 1528 L 1606 1530.1 L 1682 1546.9 L 1754 1555 L 1889 1556 L 1919 1560 L 1925 1557"/><path d="M 1583 1528 L 1587 1546 L 1592.8 1557 L 1614.3 1591.6 L 1635 1619 L 1637.8 1628.9 L 1635.9 1632.2 L 1614 1634.1 L 1611.5 1636.1 L 1615.4 1652.6 L 1642.7 1697.3 L 1647 1716"/><path d="M 1001 1552 L 1007.7 1576 L 1015.8 1592.9 L 1030 1611 L 1046.4 1624.8 L 1064 1635.8 L 1087 1645.7 L 1117.1 1653.9 L 1143 1657 L 1179 1657 L 1208 1652.9 L 1241.9 1643 L 1264 1632.2 L 1286.6 1616.8 L 1301.2 1602.2 L 1315.8 1579 L 1324 1556"/><path d="M 1001 1552 L 964 1552 L 949 1554.1 L 923 1561.3 L 904 1569.3 L 877.1 1583.8 L 851.8 1601.8 L 780.2 1667.2 L 742.9 1694.3 L 719 1707.2 L 704 1712.7 L 689 1716.9 L 671 1717"/><path d="M 1324 1556 L 1355 1557 L 1381 1561.1 L 1423 1576.3 L 1449 1590.3 L 1476.2 1609.8 L 1545.4 1669.8 L 1575.3 1691.7 L 1610 1710 L 1626 1714.9 L 1647 1716"/><path d="M 1925 1557 L 1941.9 1566.7 L 1952.6 1578 L 1955.9 1590 L 1954.9 1599 L 1950.7 1613.7 L 1937.8 1636.6 L 1921.8 1655.8 L 1906.6 1669.8 L 1884.7 1686.7 L 1852.9 1706.3 L 1800 1730.7 L 1763.9 1741.9 L 1730 1749.9 L 1698 1754 L 1690 1753"/><path d="M 1647 1716 L 1653 1718 L 1665 1717 L 1700.5 1711.5 L 1698.7 1727 L 1690 1753"/><path d="M 671 1717 L 650 1717 L 617.1 1712.5 L 622 1746"/><path d="M 1105 1717 L 1103.2 1722.9 L 1097.8 1730.7 L 1080.8 1750.1 L 1075 1765"/><path d="M 622 1746 L 630.2 1750.8 L 635 1757 L 639 1772"/><path d="M 1690 1753 L 1678.5 1759.3 L 1674 1771"/><path d="M 1075 1765 L 1079 1769.9 L 1088 1768.9 L 1098 1766.2 L 1109.7 1759.8 L 1132.3 1741.2 L 1153.1 1712.1 L 1160 1709.4 L 1167.7 1712.5 L 1199 1747 L 1220.4 1764.8 L 1258 1789.2 L 1291.3 1805.7 L 1323 1817.7 L 1376 1831.9 L 1405 1836.9 L 1451 1841 L 1476 1841 L 1519 1836.9 L 1563 1826.7 L 1607 1809.8 L 1638.7 1791.7 L 1660.4 1775.4 L 1674 1771"/><path d="M 1075 1765 L 1053 1770.3 L 1017 1791.8 L 959 1817.7 L 890 1836.9 L 844 1843 L 804 1843 L 783 1840.9 L 758 1835.7 L 732 1827.7 L 695.3 1809.7 L 676.7 1797.2 L 651.6 1776.3 L 639 1772"/><path d="M 1674 1771 L 1713.3 1835.6 L 1738.8 1867.2 L 1762.6 1892.9 L 1767.7 1905 L 1766.7 1910.7 L 1761.9 1913.9 L 1744 1917 L 1722 1917.1 L 1716.2 1919.1 L 1721 1938.9 L 1735.7 1966.3 L 1746.7 1994 L 1754.7 2021 L 1760.9 2052 L 1762.2 2082.9 L 1756.9 2087.9 L 1744 2088"/><path d="M 639 1772 L 608.9 1818 L 551.4 1887.4 L 545.5 1911.5 L 571 1912"/><path d="M 604 1886 L 571 1912"/><path d="M 571 1912 L 567.7 1933 L 545.3 1983.3 L 539.3 2001 L 537.2 2017 L 541 2020.5 L 575 2009"/><path d="M 1305 1917 L 1318.7 1943.3 L 1335 1981.1 L 1351.9 2034.1 L 1360.9 2080 L 1364 2140 L 1363 2165 L 1357.9 2208 L 1340.7 2281 L 1317.7 2349.7 L 1285 2430"/><path d="M 1536 1918 L 1550.9 1973 L 1558.9 2021.1 L 1562 2057 L 1562 2102 L 1556 2208 L 1554 2213"/><path d="M 1014 1956 L 1003.1 2006 L 996 2070 L 996 2120 L 1003.1 2188 L 1016.1 2254.9 L 1037.1 2327.9 L 1064.3 2402.7 L 1088 2457"/><path d="M 768 1969 L 765 2033 L 774 2186"/><path d="M 599 1975 L 575 2009"/><path d="M 575 2009 L 575 2014"/><path d="M 575 2014 L 573.9 2030.9 L 555.1 2089.1 L 540.1 2152.1 L 530.1 2210 L 529 2232"/><path d="M 575 2014 L 568 2020"/><path d="M 568 2020 L 567 2021.4 L 568 2020"/><path d="M 1723 2055 L 1738.8 2082.3 L 1744 2088"/><path d="M 1744 2088 L 1741.5 2094 L 1744.3 2111 L 1766.3 2168.7 L 1785.6 2208 L 1789 2226"/><path d="M 821 2108 L 815 2167"/><path d="M 815 2167 L 822.9 2174 L 830.1 2220 L 841.3 2269 L 853.3 2307 L 871.3 2350.7 L 877.4 2361.6 L 888.9 2367.5 L 902 2352"/><path d="M 815 2167 L 805.8 2173.1 L 801.2 2191.9 L 793 2198"/><path d="M 1527 2172 L 1530.1 2204 L 1537 2213"/><path d="M 585 2185 L 564 2221"/><path d="M 774 2186 L 793 2198"/><path d="M 774 2186 L 766.1 2194.1 L 758.7 2238 L 744.7 2284.7 L 730.2 2320 L 699.3 2382 L 693.1 2402.1 L 689.7 2426 L 687.2 2430.2 L 679 2429.6 L 671 2425.9 L 657.3 2405.7 L 646.1 2370.9 L 641.6 2331.1 L 639 2330.1 L 624 2333.3 L 602 2344"/><path d="M 793 2198 L 796 2244"/><path d="M 1537 2213 L 1554 2213"/><path d="M 1537 2213 L 1533.7 2235 L 1528.1 2245 L 1524.9 2275 L 1516.6 2306.6 L 1508 2311.8 L 1492.3 2307.5 L 1484.4 2313.1 L 1473.7 2350 L 1458 2392.9 L 1443.8 2425 L 1417.3 2474.9 L 1386.8 2520.6 L 1361.3 2552.2 L 1348.9 2565.3 L 1334 2570.2 L 1330.1 2567 L 1330 2557 L 1335.9 2515 L 1336.9 2492 L 1332 2486"/><path d="M 1554 2213 L 1563.9 2222 L 1579.3 2286.7 L 1626.7 2417 L 1630 2420.7 L 1634 2422.2 L 1643.9 2418.2 L 1649.7 2409 L 1661.9 2373 L 1666.4 2331.4 L 1712 2336 L 1743 2335"/><path d="M 564 2221 L 561.7 2238.7 L 541.8 2274.1 L 537.5 2292.5 L 553 2290.7 L 574 2282.3 L 589 2280"/><path d="M 564 2221 L 529 2232"/><path d="M 1789 2226 L 1793.5 2231 L 1797 2242"/><path d="M 1789 2226 L 1745.5 2217.5 L 1748.1 2236.9 L 1751.3 2243.7 L 1759.1 2256.3 L 1770 2261"/><path d="M 529 2232 L 518.7 2252.7 L 510.7 2258.7 L 475.1 2262.1 L 412 2279"/><path d="M 1797 2242 L 1835 2237 L 1879 2240.1 L 1905.7 2247.3 L 1937.9 2259 L 1960 2269.7 L 1971 2272"/><path d="M 1797 2242 L 1792.7 2249.7 L 1770 2261"/><path d="M 612 2251 L 589 2280"/><path d="M 1770 2261 L 1781.5 2303.9 L 1748 2304"/><path d="M 1705 2271 L 1724.3 2289.8 L 1738.3 2299.7 L 1748 2304"/><path d="M 1971 2272 L 1971 2287 L 1973 2291"/><path d="M 1971 2272 L 1978.6 2267.1 L 1987.7 2251.7 L 1990.8 2233 L 1990 2223 L 1986.7 2208.3 L 1979.8 2194 L 1961.8 2168 L 1960.1 2154 L 1963.3 2147.3 L 1975.8 2131.8 L 1987.3 2122.4 L 1999 2119.5 L 2012.6 2124.3 L 2019.3 2130.8 L 2046.7 2173.3 L 2067.7 2221.3 L 2082.3 2275 L 2087 2282"/><path d="M 412 2279 L 411 2294"/><path d="M 412 2279 L 404.1 2260 L 403 2244 L 405.3 2230 L 410.3 2217 L 419 2202 L 445.2 2172.9 L 447.3 2162 L 445 2151.1 L 435.2 2133.7 L 425.7 2124.3 L 416 2121 L 404.1 2123.8 L 393 2132.1 L 380.8 2143.8 L 360.3 2169 L 342.8 2197 L 330.3 2221.3 L 308 2277.9 L 304 2282"/><path d="M 589 2280 L 589 2284"/><path d="M 304 2282 L 304 2294"/><path d="M 304 2282 L 299 2279.1 L 286 2278 L 262 2278 L 241.1 2281.1 L 209 2292.3 L 187.3 2303.3 L 167.7 2316.8 L 137.1 2345 L 113.3 2376 L 95.8 2409 L 78.1 2457.1 L 70 2502 L 69 2555 L 77.1 2607.9 L 89.3 2645.7 L 106.3 2681.7 L 124.2 2706.6 L 150.9 2733.6 L 183.6 2754.1 L 189 2765"/><path d="M 2087 2282 L 2092 2279.1 L 2113 2277 L 2149.9 2280.1 L 2191.7 2295.3 L 2222.6 2315.3 L 2248.9 2340 L 2267.2 2362.8 L 2278.3 2380.1 L 2298 2421.1 L 2311.9 2470 L 2316 2506 L 2315 2566 L 2308.7 2601 L 2296 2643.9 L 2277.7 2681 L 2256.9 2710 L 2233 2732.9 L 2201.8 2752.8 L 2195 2765"/><path d="M 2087 2282 L 2087 2295"/><path d="M 589 2284 L 586.5 2298 L 566.5 2326 L 562.5 2341 L 564.1 2342.9 L 571 2344 L 602 2344"/><path d="M 589 2284 L 582 2289"/><path d="M 582 2289 L 581 2290.4 L 582 2289"/><path d="M 1973 2291 L 2007.9 2292.1 L 2025.7 2297.3 L 2038 2303.6 L 2049 2306"/><path d="M 1973 2291 L 1939.1 2297.1 L 1920.3 2303.3 L 1895.3 2315.3 L 1879.8 2326.8 L 1864.8 2340.8 L 1847.3 2364 L 1832.8 2390.1 L 1820 2421"/><path d="M 304 2294 L 334 2300.4 L 339 2305"/><path d="M 304 2294 L 298 2298.5 L 273.3 2307.3 L 253.7 2319.8 L 231.3 2340.3 L 219 2355"/><path d="M 411 2294 L 414.1 2298 L 431 2304.8 L 452 2317.1 L 467.9 2330.1 L 489 2354"/><path d="M 411 2294 L 375 2293.1 L 339 2305"/><path d="M 2087 2295 L 2093 2298.7 L 2121 2307.8 L 2141.9 2320.7 L 2166.2 2343.8 L 2182 2365"/><path d="M 2087 2295 L 2080 2297.9 L 2060.1 2300.1 L 2049 2306"/><path d="M 901 2296 L 900 2326 L 902 2352"/><path d="M 1748 2304 L 1750 2311 L 1749.9 2327.9 L 1743 2335"/><path d="M 339 2305 L 334 2317 L 320.8 2335 L 310 2358.1 L 303.3 2381 L 302 2392"/><path d="M 2049 2306 L 2052.8 2317 L 2063.7 2332.3 L 2073 2350.1 L 2079.7 2370 L 2084 2393"/><path d="M 1743 2335 L 1745.9 2341 L 1756.9 2410 L 1759 2435 L 1758.9 2501 L 1752.9 2545 L 1743.7 2583 L 1725.7 2632.7 L 1709 2667.1 L 1705 2686"/><path d="M 602 2344 L 600.9 2367 L 593 2419 L 592 2441 L 593 2489 L 596.1 2517 L 604.3 2557 L 616.3 2599 L 632.8 2639 L 650.2 2671 L 655 2688"/><path d="M 902 2352 L 912.5 2360 L 932.3 2424 L 947.3 2460.7 L 968.3 2502 L 985.3 2529.7 L 1000.8 2550.3 L 1014.9 2555.8 L 1018.9 2551 L 1019.4 2537.4 L 1024 2533"/><path d="M 196 2375 L 168.3 2417.3 L 154.3 2448.3 L 147.3 2470 L 138.1 2516 L 137 2569 L 144.3 2614 L 157.8 2653 L 175.8 2686.3 L 203 2721"/><path d="M 2203 2381 L 2229.8 2427 L 2241.9 2461.1 L 2248.9 2495 L 2252 2545 L 2247.9 2586.9 L 2234 2637.9 L 2213.7 2679 L 2196.8 2702.6 L 2182 2719"/><path d="M 1339 2449 L 1332 2486"/><path d="M 1017 2478 L 1018.1 2498 L 1024 2533"/><path d="M 1798 2483 L 1790.1 2520 L 1785 2563 L 1785 2608 L 1788.1 2633.9 L 1797.3 2668.7 L 1808.8 2693 L 1819.1 2708 L 1838.2 2727.8 L 1844 2742"/><path d="M 1332 2486 L 1318.8 2493.1 L 1271.8 2604 L 1268.3 2608.2 L 1258 2613"/><path d="M 1024 2533 L 1038 2541 L 1072.3 2624.7 L 1086.4 2652.9 L 1098.9 2658.8 L 1110 2652"/><path d="M 1252 2567 L 1247 2610"/><path d="M 1105 2600 L 1106.1 2628 L 1110 2652"/><path d="M 1247 2610 L 1258 2613"/><path d="M 1247 2610 L 1234.3 2617.4 L 1198.8 2700 L 1178.2 2740.9 L 1171.7 2744.5 L 1163.1 2740.9 L 1158.3 2733.7 L 1136.3 2692 L 1121.5 2658.4 L 1110 2652"/><path d="M 1258 2613 L 1255 2648"/><path d="M 590 2621 L 585.7 2644 L 574.7 2676.7 L 559.7 2703 L 540.3 2726.4 L 535 2741"/><path d="M 1705 2686 L 1711.2 2690.7 L 1720.8 2706.3 L 1736.8 2724.4 L 1742 2739"/><path d="M 1705 2686 L 1694.8 2689.8 L 1673 2716"/><path d="M 655 2688 L 665.9 2693.1 L 689 2718"/><path d="M 655 2688 L 648.3 2693 L 637.9 2709 L 624.3 2724.4 L 619 2739"/><path d="M 472 2711 L 463.6 2724.1 L 452.5 2736 L 446 2750"/><path d="M 1911 2711 L 1920.3 2725.7 L 1929.6 2736 L 1936 2750"/><path d="M 1673 2716 L 1678.2 2729.6 L 1689.3 2741.6 L 1698 2746"/><path d="M 1673 2716 L 1659 2712.5 L 1639 2700.3 L 1608.9 2687 L 1548.9 2668.1 L 1522 2663.1 L 1480 2660 L 1423 2663.1 L 1391 2669.3 L 1350 2681 L 1306 2697.8 L 1276.3 2713.3 L 1254.8 2727.8 L 1235.1 2745 L 1218.8 2766.1 L 1208 2788.9 L 1205 2791"/><path d="M 689 2718 L 702 2714.2 L 725 2700.4 L 754.3 2687.3 L 789.1 2675.1 L 816 2668.1 L 848 2662.1 L 880 2660 L 940 2663.1 L 967 2668.3 L 1007 2680.3 L 1043 2695.8 L 1067.7 2709.3 L 1090.6 2726.2 L 1111.9 2747 L 1125.3 2766.1 L 1137 2791"/><path d="M 689 2718 L 685.2 2727.3 L 673.8 2739.8 L 670.6 2742.7 L 661 2746"/><path d="M 2122 2719 L 2109.6 2732.8 L 2083.5 2751.3 L 2077 2762"/><path d="M 261 2720 L 275.8 2736.3 L 296 2751.4 L 302 2763"/><path d="M 619 2739 L 623 2741.9 L 657 2744 L 661 2746"/><path d="M 619 2739 L 595 2742 L 561 2743 L 538 2743 L 535 2741"/><path d="M 1742 2739 L 1753 2741 L 1836 2744 L 1844 2742"/><path d="M 1742 2739 L 1738 2741.9 L 1710 2743.1 L 1698 2746"/><path d="M 535 2741 L 520 2744.9 L 477 2749.9 L 446 2750"/><path d="M 1844 2742 L 1865 2745.9 L 1916 2751 L 1936 2750"/><path d="M 661 2746 L 657.7 2762 L 648.3 2787 L 646 2801 L 647.1 2829.9 L 652.3 2843.7 L 660.8 2858.2 L 682.4 2878.8 L 709 2894.2 L 747 2907.7 L 798 2917.9 L 822 2920 L 889 2920 L 929 2916.9 L 996 2905.9 L 1033 2896.7 L 1060 2887.7 L 1096.9 2869.3 L 1115 2854.9 L 1121.6 2847.1 L 1132.7 2828 L 1135.9 2815 L 1137 2791"/><path d="M 1698 2746 L 1707.9 2785 L 1708.9 2816 L 1703.2 2840 L 1694.8 2854.6 L 1685.9 2865 L 1661.7 2883.7 L 1630.9 2898 L 1591.9 2908.9 L 1547 2916 L 1515 2918 L 1461 2918 L 1402 2913.9 L 1345 2904.9 L 1281.3 2887.7 L 1240 2866.6 L 1219.3 2847.6 L 1211.3 2835 L 1206.1 2820.9 L 1205 2791"/><path d="M 446 2750 L 418 2755.9 L 368 2762 L 336 2764 L 302 2763"/><path d="M 1936 2750 L 1958 2754.9 L 2010 2761 L 2042 2763 L 2077 2762"/><path d="M 2077 2762 L 2082 2765.9 L 2101 2767 L 2172 2767 L 2195 2765"/><path d="M 302 2763 L 297.9 2766.9 L 260 2768 L 227 2768 L 189 2765"/><path d="M 189 2765 L 185.6 2769.8 L 179.9 2771.9 L 137.1 2777.1 L 81.1 2790.1 L 56.1 2798 L 26 2811"/><path d="M 2195 2765 L 2201 2769.9 L 2248.9 2776.1 L 2309.9 2790.1 L 2351 2804.3 L 2362 2810"/><path d="M 1137 2791 L 1205 2791"/><path d="M 556 119 L 592 120.1 L 595.9 123 L 597.1 127 L 591.2 138.2 L 546.1 163.8 L 510.4 188.3 L 482.8 210.8 L 454.3 238.3 L 431.3 264.4 L 413.3 288.4 L 394.8 318 L 381.3 345.3 L 366.3 387 L 358 437 L 357 458 L 359.1 490 L 368.1 536.9 L 388.8 591 L 409.3 625.7 L 429.1 651 L 453 675 L 488 701.7 L 534.1 725 L 589.1 738.9 L 644 741 L 700 735 L 703.8 736.1 L 704 739 L 698.2 753.2 L 671.6 774.8 L 645.9 792.3 L 606 814.2 L 553 834.7 L 502 845.9 L 466 849 L 412 846.9 L 368 837.7 L 338 827.7 L 310.3 814.7 L 286.1 800.3 L 258 779.9 L 235 759 L 212.4 734.1 L 193.8 708.9 L 178.3 683 L 166 656.9 L 154.3 626 L 147.1 600 L 140.1 559 L 140 477 L 151.3 421 L 159.3 395.3 L 171.3 366.3 L 188.8 333.1 L 205.3 307.4 L 238.3 266.3 L 278.8 226.8 L 303.8 206.8 L 327.3 190.3 L 359 171.8 L 416.3 146.3 L 479.1 128.1 L 526 121.1 L 556 119"/><path d="M 1803 307 L 1853 308.1 L 1887.9 314.1 L 1906.9 320.3 L 1910.7 327 L 1916.1 356.9 L 1928.3 395 L 1941.8 425 L 1957.1 448.9 L 1966.9 452.8 L 1973 450 L 1982.3 431.3 L 1990.1 427.2 L 1997.9 431.1 L 2007.1 446.3 L 2018 451.7 L 2028 452.9 L 2055.9 447.1 L 2056.9 454 L 2052 484 L 2052.1 488.9 L 2055 490.7 L 2069 489.9 L 2084.7 485.7 L 2115.9 470.3 L 2142.2 451.2 L 2174 422.3 L 2185 422.3 L 2207 431.8 L 2240.6 453.2 L 2272.3 483.8 L 2286.3 502.1 L 2305.2 533 L 2309.9 552.9 L 2304 554 L 2271 551 L 2256 553.4 L 2245 557.8 L 2236.3 562.3 L 2225.1 572 L 2215.8 584.1 L 2207.6 601 L 2203.9 603.9 L 2193 601.6 L 2168 591.1 L 2135.1 591.1 L 2111.3 601.3 L 2091.6 619.8 L 2084.9 622.9 L 2076.1 620.2 L 2063 610 L 2050 604.4 L 2040 603 L 2028 604.1 L 2000.1 615.8 L 1966.9 641.2 L 1953 644.5 L 1950.4 641 L 1937.7 594.3 L 1928.7 576.3 L 1917 561 L 1908.7 553.3 L 1899 548.3 L 1869 544.9 L 1865.3 542.8 L 1861.7 522 L 1853.8 500 L 1845.2 486.8 L 1829.6 472.3 L 1821 466.8 L 1803 460.3 L 1777 457.9 L 1774.8 456.3 L 1773 451 L 1771.9 414 L 1764.3 391 L 1750 370 L 1735.3 356.8 L 1720.1 346.9 L 1716.4 340 L 1720.7 330.8 L 1740 322.3 L 1773 312.3 L 1803 307"/><path d="M 1936 838 L 1974 841.1 L 1994.2 846.8 L 2009.3 888 L 2020.8 908.9 L 2030 920.2 L 2038 923 L 2044 921 L 2050.1 909 L 2058 904.7 L 2065.6 908.3 L 2072.8 918.3 L 2080 921.7 L 2110.5 919.5 L 2107.2 950.9 L 2109.1 952.9 L 2134 949.7 L 2152.7 941.7 L 2189.1 915 L 2195 913.5 L 2207 916.8 L 2234.1 933.4 L 2259.9 958 L 2279.2 986.1 L 2282.5 1002.6 L 2252 1003.1 L 2235.3 1007.3 L 2221.3 1018.3 L 2210.6 1034.6 L 2206 1036.9 L 2176 1029.1 L 2159.1 1031.1 L 2150.3 1035.3 L 2134.2 1050.2 L 2127.9 1052.9 L 2119 1050.7 L 2102 1041.3 L 2093 1040.1 L 2085 1041.4 L 2067.3 1049.3 L 2041.9 1069.2 L 2030 1072.9 L 2027 1072.2 L 2025.1 1070 L 2015.7 1030 L 2006.8 1013.3 L 1992.9 1001 L 1965.4 996 L 1960.5 967 L 1948 950.1 L 1937.9 944.1 L 1910.4 938.5 L 1910 906 L 1906.2 894 L 1898.3 881.8 L 1878.3 867.5 L 1874.5 861 L 1878.1 852.1 L 1886.3 848.3 L 1906.1 842.1 L 1936 838"/><path d="M 1125 1140 L 1196 1140 L 1218.9 1142.1 L 1228 1144.4 L 1234.5 1148.3 L 1237 1159 L 1239 1198 L 1239 1263 L 1236.9 1268.9 L 1229 1271 L 1094 1271 L 1085.5 1268.9 L 1082 1253 L 1086.3 1154 L 1088.8 1148.1 L 1093 1145.5 L 1125 1140"/><path d="M 1926 2413 L 1933.9 2416.3 L 1937.2 2422 L 1964.7 2488 L 1967.9 2504 L 1966.9 2507.9 L 1935.1 2502.9 L 1884 2485.7 L 1877 2481 L 1875.2 2476 L 1878.3 2465.4 L 1918.1 2417 L 1926 2413"/><path d="M 458 2415 L 468 2418.1 L 477.9 2429 L 509 2468 L 511.7 2479.7 L 506.7 2485.7 L 476 2496.7 L 447 2504.9 L 419.1 2508.9 L 418.1 2507 L 422 2488.1 L 450.3 2422.3 L 458 2415"/><path d="M 2130 2433 L 2140.2 2439 L 2168.2 2490 L 2171.7 2498 L 2173.6 2510.7 L 2171 2512.9 L 2161 2514 L 2087.1 2516.5 L 2086.1 2513 L 2090.3 2496 L 2121.3 2440 L 2130 2433"/><path d="M 258 2434 L 266.7 2438.3 L 294.7 2490.3 L 299.7 2501 L 301.9 2516.2 L 220 2514 L 214.8 2511.3 L 217.1 2497.1 L 220.3 2490.3 L 250.3 2438.4 L 258 2434"/><path d="M 1851 2539 L 1866.9 2543.8 L 1897.1 2565.3 L 1921.3 2577.7 L 1942 2585.7 L 1975.9 2594.4 L 1978.9 2601 L 1978 2624 L 1979.5 2628.9 L 1996.1 2632.9 L 2040 2634.6 L 2043.9 2629 L 2046.1 2606.1 L 2050 2602 L 2081 2598.9 L 2116 2592.7 L 2142 2584.7 L 2168.1 2573.1 L 2184 2570 L 2185.9 2571.1 L 2185.9 2574 L 2182.7 2592 L 2166 2625 L 2150.8 2644.8 L 2125 2666.7 L 2093 2683.2 L 2070 2689.9 L 2037 2694 L 2001 2692.9 L 1973 2687.7 L 1940 2675.2 L 1909 2656.7 L 1892 2641 L 1875.3 2619 L 1862 2592.9 L 1851.1 2558 L 1851 2539"/><path d="M 533 2541 L 534.9 2545 L 532.9 2562 L 523.7 2590.7 L 510.7 2617 L 494 2639 L 474 2657.7 L 441.7 2676.7 L 416 2686.7 L 381 2693.9 L 338 2695 L 312 2690.9 L 286 2682.7 L 262.1 2670.3 L 240 2652.9 L 221.3 2630.7 L 206 2601.9 L 200.1 2578 L 200.1 2571.1 L 202 2570.4 L 216 2573.4 L 240.1 2584 L 267.1 2592.9 L 301 2598.9 L 334 2601.3 L 338.6 2606 L 342.1 2632 L 344 2634.2 L 367 2635 L 389 2632.9 L 404.2 2628.9 L 404 2602 L 407.3 2595.3 L 458 2580.2 L 491.9 2563.3 L 518 2545.5 L 533 2541"/></g></svg>